<svg xmlns="http://www.w3.org/2000/svg" viewBox="0 0 57.5 74.54"><defs><style>.a{fill:#fff;}</style></defs><title>o3p</title><path class="a" d="M232.85,334.49s1.15,2.95,1.66,3.1a1.93,1.93,0,0,0,1.68-.49c0.36-.39-0.88-3.66-0.88-3.66a34.47,34.47,0,0,0,3.39-1.86c5.53-3.44,8.93-6.93,11.46-12.42a20.49,20.49,0,0,0,1.28-14.87c-1.52-6.1-4.19-9-4.4-13.08-0.25-4.82,3-6.09,3-6.09-7.34,2.71-2.15,11.4-.85,17.56,0.81,3.86,1.51,8.32-1,14.41A27.56,27.56,0,0,1,236,330.58c-5.69,3.18-12.38,4.73-20.58,4.73A41.7,41.7,0,0,1,198,331.9a25.81,25.81,0,0,1-3.27-1.62h0a26.49,26.49,0,0,0,6.31,3.69l0.44,0.18h0s-0.84,2.49-.54,2.93a1.93,1.93,0,0,0,1.6.7c0.53-.07,1.32-2.78,1.32-2.78h0a45.22,45.22,0,0,0,13.64,1.88h0s0,3,.38,3.33a1.93,1.93,0,0,0,1.75.13c0.48-.24.34-3.48,0.34-3.48a38.49,38.49,0,0,0,12.83-2.36h0Z" transform="translate(-194.78 -265.94)"/><path class="a" d="M216.62,292.31c-2.36-5.71,5.27-8,5.9-13.15,0.46-3.81-8.88-10.15-5.19-12.74,0.54-.38-0.27-0.64-0.63-0.38-4.64,3.27,2.9,7.46,4.32,10.46,3.07,6.5-8.12,9.4-5.36,16.07,0.16,0.4,1.12.12,1-.26h0Z" transform="translate(-194.78 -265.94)"/></svg>